<svg width="24" height="24" viewBox="0 0 24 24" fill="none" xmlns="http://www.w3.org/2000/svg">
<g id="linkedin 1" clip-path="url(#clip0_622485_141)">
<path id="Vector" d="M23.9941 24V23.999H24.0001V15.197C24.0001 10.891 23.0731 7.57397 18.0391 7.57397C15.619 7.57397 13.995 8.90197 13.332 10.161H13.262V7.97597H8.48904V23.999H13.459V16.065C13.459 13.976 13.855 11.956 16.442 11.956C18.9911 11.956 19.0291 14.34 19.0291 16.199V24H23.9941Z" fill="#F4F4FD"/>
<path id="Vector_2" d="M0.396027 7.97705H5.37203V24H0.396027V7.97705Z" fill="#F4F4FD"/>
<path id="Vector_3" d="M2.88203 0C1.29103 0 3.05176e-05 1.291 3.05176e-05 2.882C3.05176e-05 4.473 1.29103 5.791 2.88203 5.791C4.47303 5.791 5.76403 4.473 5.76403 2.882C5.76303 1.291 4.47203 0 2.88203 0V0Z" fill="#F4F4FD"/>
</g>
<defs>
<clipPath id="clip0_622485_141">
<rect width="24" height="24" fill="white"/>
</clipPath>
</defs>
</svg>
